<svg width="20" height="20" viewBox="0 0 20 20" fill="none" xmlns="http://www.w3.org/2000/svg">
<path fill-rule="evenodd" clip-rule="evenodd" d="M16.6115 8.82588C16.6479 8.5859 16.6667 8.3405 16.6667 8.09091C16.6667 5.27928 14.2789 3 11.3333 3C8.80395 3 6.68581 4.68076 6.13781 6.93606C5.88397 6.85949 5.6137 6.81818 5.33333 6.81818C3.86057 6.81818 2.66667 7.95782 2.66667 9.36364C2.66667 9.62071 2.70659 9.86889 2.78085 10.1028C1.18376 10.481 0 11.8586 0 13.5C0 15.3257 1.4645 16.825 3.33333 16.9857V17H3.66667H15.6667H16V16.9879C18.2375 16.8255 20 15.041 20 12.8636C20 10.8889 18.5504 9.23745 16.6115 8.82588Z" fill="url(#paint0_linear_1879_119)"/>
<path fill-rule="evenodd" clip-rule="evenodd" d="M15.5922 10.2658C15.8066 10.4022 15.8646 10.6788 15.7216 10.8835L13.055 14.7017C12.912 14.9064 12.6223 14.9617 12.4078 14.8252C12.1934 14.6888 12.1354 14.4122 12.2784 14.2075L14.945 10.3893C15.088 10.1846 15.3777 10.1293 15.5922 10.2658Z" fill="white"/>
<path fill-rule="evenodd" clip-rule="evenodd" d="M6.8667 12.5456C6.8667 12.2995 7.07563 12.1001 7.33337 12.1001H17.3334C17.5911 12.1001 17.8 12.2995 17.8 12.5456C17.8 12.7916 17.5911 12.991 17.3334 12.991H7.33337C7.07563 12.991 6.8667 12.7916 6.8667 12.5456Z" fill="white"/>
<defs>
<linearGradient id="paint0_linear_1879_119" x1="1" y1="10.9545" x2="19.9859" y2="12.6993" gradientUnits="userSpaceOnUse">
<stop stop-color="#E17216"/>
<stop offset="1" stop-color="#F8A32F"/>
</linearGradient>
</defs>
</svg>
