<svg width="20" height="20" viewBox="0 0 20 20" fill="none" xmlns="http://www.w3.org/2000/svg">
<rect width="20" height="20" rx="10" fill="#6987EB"/>
<path d="M16 10.0496V10.7438C16 12.2534 15.4719 13.5096 14.4157 14.5124C13.3596 15.5041 11.9607 16 10.2191 16C8.42135 16 6.93258 15.4215 5.75281 14.2645C4.58427 13.0964 4 11.6749 4 10C4 8.32507 4.58427 6.90909 5.75281 5.75207C6.93258 4.58402 8.41011 4 10.1854 4C11.2753 4 12.2753 4.25895 13.1854 4.77686C14.0955 5.28375 14.7978 5.95592 15.2921 6.79339L13.9438 7.57025C13.6067 6.94215 13.0955 6.44077 12.4101 6.06612C11.736 5.68044 10.9888 5.4876 10.1685 5.4876C8.82022 5.4876 7.71348 5.92287 6.84831 6.79339C5.98315 7.65289 5.55056 8.72176 5.55056 10C5.55056 11.2782 5.98315 12.3471 6.84831 13.2066C7.72472 14.0661 8.85393 14.4959 10.236 14.4959C11.4157 14.4959 12.3708 14.2149 13.1011 13.6529C13.8315 13.0799 14.2753 12.3416 14.4326 11.438H10.1011V10.0496H16Z" fill="white"/>
<ellipse cx="10.0896" cy="10.706" rx="1.43284" ry="1.41176" fill="white"/>
<ellipse cx="14.2089" cy="6.47065" rx="1.25373" ry="1.23529" fill="white"/>
</svg>
