<svg width="20" height="20" viewBox="0 0 20 20" fill="none" xmlns="http://www.w3.org/2000/svg">
<path d="M20 8H16V12H20V8Z" fill="#4CC4D2"/>
<path d="M16 8H12V12H16V8Z" fill="#00ABBF"/>
<path d="M16 12H12V16H16V12Z" fill="#33A5CB"/>
<path d="M20 12H16V16H18.5C19.3284 16 20 15.3284 20 14.5V12Z" fill="#7FC7DF"/>
<path d="M20 5.5C20 4.67157 19.3284 4 18.5 4H16V8H20V5.5Z" fill="#7FDCDF"/>
<path d="M16 4H12V8H16V4Z" fill="#33C7CB"/>
<path d="M16 1.5C16 0.671573 15.3284 0 14.5 0H12V4H16V1.5Z" fill="#7FE9DF"/>
<path d="M12 8H8V12H12V8Z" fill="#009DBF"/>
<path d="M12 4H8V8H12V4Z" fill="#00C6BF"/>
<path d="M12 0H8V4H12V0Z" fill="#4CE1D2"/>
<path d="M8 0H5.5C4.67157 0 4 0.671573 4 1.5V4H8V0Z" fill="#7FE9DF"/>
<path d="M8 4H4V8H8V4Z" fill="#33C7CB"/>
<path d="M8 8H4V12H8V8Z" fill="#00ABBF"/>
<path d="M8 12H4V16H8V12Z" fill="#38A4D6"/>
<path d="M4 4H1.5C0.671573 4 0 4.67157 0 5.5V8H4V4Z" fill="#7FDCDF"/>
<path d="M4 8H0V12H4V8Z" fill="#4CC4D2"/>
<path d="M4 12H0V14.5C0 15.3284 0.671573 16 1.5 16H4V12Z" fill="#7FC7DF"/>
<path d="M12 12H8V16H12V12Z" fill="#1499C6"/>
<path d="M16 16H12V20H14.5C15.3284 20 16 19.3284 16 18.5V16Z" fill="#7FB9DF"/>
<path d="M8 16H4V18.5C4 19.3284 4.67157 20 5.5 20H8V16Z" fill="#7FB9DF"/>
<path d="M12 16H8V20H12V16Z" fill="#50A2D7"/>
<path d="M13.9058 10.1513C14.1561 10.3934 14.562 10.3934 14.8124 10.1513C15.0627 9.9092 15.0627 9.5167 14.8124 9.2746C14.562 9.03249 14.1561 9.03249 13.9058 9.2746C13.6554 9.5167 13.6554 9.9092 13.9058 10.1513Z" fill="white"/>
<path d="M13.6024 8.10516C13.8528 8.34727 14.2587 8.34727 14.509 8.10516C14.7593 7.86306 14.7593 7.47056 14.509 7.22846C14.2587 6.98635 13.8528 6.98635 13.6024 7.22846C13.3521 7.47056 13.3521 7.86306 13.6024 8.10516Z" fill="white"/>
<path d="M12.6963 6.64376C12.9466 6.88586 13.3525 6.88586 13.6029 6.64376C13.8532 6.40165 13.8532 6.00913 13.6029 5.76703C13.3525 5.52492 12.9466 5.52492 12.6963 5.76703C12.446 6.00913 12.446 6.40166 12.6963 6.64376Z" fill="white"/>
<path d="M10.8831 6.05928C11.1334 6.30139 11.5393 6.30139 11.7896 6.05928C12.04 5.81718 12.04 5.42465 11.7896 5.18255C11.5393 4.94045 11.1334 4.94045 10.8831 5.18255C10.6327 5.42465 10.6327 5.81718 10.8831 6.05928Z" fill="white"/>
<path d="M13.905 9.27418L11.9405 11.174C11.8572 11.2546 11.7218 11.2546 11.6383 11.174C11.555 11.0933 11.555 10.9624 11.6383 10.8817L14.5094 8.10508L13.6028 7.22828L11.0339 9.7126C10.9505 9.79325 10.8151 9.79325 10.7317 9.7126C10.6483 9.63191 10.6483 9.50099 10.7317 9.42034L13.6028 6.64374L12.6961 5.76692L9.82505 8.5435C9.74166 8.62419 9.60624 8.62419 9.52284 8.5435C9.4394 8.46285 9.4394 8.33188 9.52284 8.25123L11.7895 6.05919L10.8828 5.18237L7.10511 8.83576L7.33057 7.43406C7.4288 6.98832 7.16858 6.55547 6.7491 6.4596C6.32691 6.36812 5.90562 6.65163 5.80589 7.09413C5.80589 7.09413 5.29907 9.49342 5.08027 10.5187C4.86146 11.544 5.04279 12.6868 6.31724 13.9193C8.42731 15.9599 10.2457 14.5667 10.7317 14.0967C11.2177 13.6267 14.8116 10.151 14.8116 10.151L13.905 9.27418Z" fill="white"/>
</svg>
