<svg width="20" height="20" viewBox="0 0 20 20" fill="none" xmlns="http://www.w3.org/2000/svg">
<g clip-path="url(#clip0_1_2)">
<path d="M14 0.733337H6C3.0913 0.733337 0.733337 3.0913 0.733337 6V14C0.733337 16.9087 3.0913 19.2667 6 19.2667H14C16.9087 19.2667 19.2667 16.9087 19.2667 14V6C19.2667 3.0913 16.9087 0.733337 14 0.733337Z" fill="white" stroke="#E63C5A" stroke-width="2.2"/>
<path d="M12.0117 11.112H9.40105L8.75652 10.8451C8.04032 10.6193 7.49132 10.2765 7.10939 9.8164C6.72739 9.35633 6.53645 8.77693 6.53645 8.07813C6.53645 7.45313 6.67532 6.9258 6.95312 6.49609C7.23092 6.06641 7.62585 5.74089 8.13799 5.51953C8.65452 5.29818 9.26432 5.1875 9.96745 5.1875H13.1511V14.6667H11.5104V6.48959H9.96745C9.35979 6.48959 8.90839 6.63715 8.61325 6.93227C8.31812 7.2274 8.17059 7.6354 8.17059 8.15627C8.17059 8.51213 8.23565 8.81813 8.36585 9.0742C8.50045 9.32593 8.69792 9.52127 8.95832 9.66013C9.22305 9.79473 9.55079 9.862 9.94139 9.862H12.0117V11.112ZM10.0195 10.3828L7.81899 14.6667H6.06119L8.28772 10.3828H10.0195Z" fill="#E63C5A"/>
</g>
<defs>
<clipPath id="clip0_1_2">
<rect width="20" height="20" fill="white"/>
</clipPath>
</defs>
</svg>
