<svg width="20" height="20" viewBox="0 0 20 20" fill="none" xmlns="http://www.w3.org/2000/svg">
<path d="M7.47913 9.22106V10.2573L6.5075 10.73C6.65555 10.9494 6.72741 11.2022 6.71423 11.4571C6.73668 11.756 6.67484 12.0551 6.53418 12.3278C6.39353 12.6006 6.17842 12.8385 5.90799 13.0206C5.54728 13.2059 5.13704 13.3035 4.7193 13.3035C4.30156 13.3035 3.89132 13.2059 3.53061 13.0206C3.30447 12.9317 3.08966 12.822 2.88975 12.6933C2.87183 12.7652 2.87183 12.8396 2.88975 12.9115C2.88975 13.0206 2.99312 13.1478 3.17917 13.3114C3.41124 13.4713 3.66902 13.6 3.94407 13.6932C4.32197 13.8319 4.71767 13.9295 5.12242 13.9841C6.71423 14.2204 7.4998 14.584 7.4998 15.802C7.50503 16.1615 7.40744 16.5164 7.21599 16.8341C7.02454 17.1517 6.74537 17.422 6.40414 17.62C5.93638 17.8686 5.40023 18 4.85367 18C4.30712 18 3.77097 17.8686 3.30321 17.62C2.31289 17.1564 1.48412 16.4653 0.905158 15.6202C0.436097 15.0096 0.158039 14.3011 0.098917 13.566C0.098917 12.8206 0.615739 12.966 1.67005 13.566C1.44395 13.316 1.25628 13.0409 1.11189 12.7479C0.974601 12.5161 0.89032 12.2628 0.863813 12.0025C0.863813 11.8025 0.863813 11.6935 1.04987 11.6389C1.2959 11.5993 1.54806 11.5993 1.79409 11.6389C1.43598 11.2307 0.712641 11.0817 0.330766 10.2938C0.118906 9.85669 0.00653257 9.38729 0 8.91216C0 8.23952 0.268747 7.96683 0.785569 8.00319C1.56878 8.15163 2.94213 8.38985 3.65465 8.71203L4.23349 8.91201L4.93637 9.14834C5.77321 9.29861 6.63295 9.3232 7.47913 9.22106ZM2.1662 15.0567C2.18971 15.2924 2.29837 15.5154 2.4763 15.693C2.72008 15.9346 3.01498 16.1321 3.34456 16.2747C3.77856 16.4874 4.27701 16.5764 4.77098 16.5292C5.12242 16.5292 5.30848 16.3111 5.30848 16.1111C5.29853 16.0246 5.26267 15.9421 5.20456 15.8718C5.14644 15.8015 5.06816 15.7461 4.97771 15.7111L4.04743 15.3839C3.71963 15.2859 3.40158 15.1643 3.09648 15.0203C2.89531 14.9148 2.66866 14.8525 2.43495 14.8385C2.1662 14.8385 2.1662 14.9112 2.1662 15.0567ZM2.9311 10.5482C2.89283 10.8017 2.9436 11.0595 3.07662 11.2869C3.20963 11.5144 3.41854 11.7006 3.67532 11.8207C3.75021 11.8771 3.84552 11.908 3.94407 11.908C4.04262 11.908 4.13793 11.8771 4.21282 11.8207C4.35761 11.6275 4.42324 11.3967 4.39887 11.1663C4.39887 10.5118 4.17147 10.1482 3.67532 9.96642C3.17917 9.78462 2.9311 9.91188 2.9311 10.5482Z" fill="#826ED2"/>
<path d="M13.7451 8.43633C13.7975 9.79011 13.4261 11.1297 12.6737 12.3004C11.8609 13.4637 10.6289 14.3364 9.1866 14.7706C8.7962 14.8926 8.39041 14.9697 7.97879 15V13.3414C8.32222 13.3391 8.66346 13.2915 8.99179 13.2003C9.74989 12.9966 10.4265 12.5982 10.9399 12.0534C11.3839 11.5497 11.6428 10.9327 11.6802 10.289C11.5568 10.5482 11.4068 10.7963 11.2321 11.03C11.0755 11.2161 10.8921 11.3823 10.6866 11.5241C10.436 11.6885 10.1604 11.8192 9.86843 11.9123C9.59209 12.0484 9.27506 12.1012 8.96331 12.0631C8.65157 12.0251 8.36132 11.8981 8.13463 11.7005C7.90493 11.4596 7.73131 11.1791 7.62419 10.8759C7.51707 10.5727 7.47866 10.2531 7.51125 9.93609C7.44798 9.16516 7.69733 8.3998 8.21256 7.78349C8.8218 7.15529 9.5907 6.67084 10.4529 6.37194C10.8114 6.16344 11.2213 6.03825 11.646 6.00747C12.0708 5.9767 12.4974 6.04128 12.888 6.1955C13.4724 6.53074 13.7451 7.2718 13.7451 8.43633ZM10.4529 8.03051C10.192 8.12151 9.97242 8.28929 9.82947 8.5069C9.66156 8.77523 9.58053 9.08099 9.5957 9.38912C9.57305 9.61805 9.64993 9.84595 9.80999 10.0243C9.94636 10.1478 10.1412 10.1478 10.4334 10.0243C10.7019 9.904 10.9305 9.72135 11.0957 9.49498C11.2688 9.28603 11.3643 9.03276 11.3685 8.77157C11.3805 8.64456 11.3643 8.51666 11.3208 8.39543C11.2773 8.2742 11.2074 8.16211 11.1152 8.0658C11.0218 7.99979 10.9084 7.96107 10.7901 7.95477C10.6718 7.94846 10.5542 7.97488 10.4529 8.03051Z" fill="#826ED2"/>
<path d="M20 9.67381C19.1975 9.70794 18.4055 9.89611 17.6563 10.2306C16.845 8.78636 16.0487 7.46389 15.2524 6.17622C15.2524 7.01147 15.2524 7.6553 15.2524 8.09032V10.9559L13.75 12V4.94076C14.5313 4.41873 15.2524 3.8793 16.0938 3.40947C16.89 4.69714 17.7013 6.07182 18.4976 7.6031C18.4976 6.85486 18.4976 6.22842 18.4976 5.7586V2.27841C18.9858 2.11018 19.4909 2.01658 20 2V9.67381Z" fill="#826ED2"/>
</svg>
