<svg width="20" height="20" viewBox="0 0 20 20" fill="none" xmlns="http://www.w3.org/2000/svg">
<path fill-rule="evenodd" clip-rule="evenodd" d="M2.29564 4.05465L8.72421 0.342381C8.82303 0.285318 8.92466 0.235387 9.0284 0.19259C9.75457 -0.106994 10.5841 -0.0570636 11.2758 0.342381L17.7044 4.05465C18.5056 4.5173 19 5.37833 19 6.31085V13.6892C19 14.6217 18.5056 15.4827 17.7044 15.9454L15.1429 17.4245L12.5714 18.9094L11.2758 19.6576C11.177 19.7147 11.0753 19.7646 10.9716 19.8074C10.2454 20.107 9.41594 20.0571 8.72421 19.6576L7.42857 18.9094L4.85714 17.4245L2.29564 15.9454C2.19549 15.8875 2.10014 15.8235 2.00994 15.7538C1.37856 15.2663 1 14.5051 1 13.6892V6.31085C1 5.37833 1.49445 4.5173 2.29564 4.05465Z" fill="#5AD29B"/>
<path d="M7 15C6.44772 15 6 14.5523 6 14V6.33333C6 5.59695 6.59695 5 7.33333 5H13C13.5523 5 14 5.44772 14 6C14 6.55228 13.5523 7 13 7H8V9H12C12.5523 9 13 9.44772 13 10C13 10.5523 12.5523 11 12 11H8V14C8 14.5523 7.55228 15 7 15Z" fill="white"/>
</svg>
