<svg width="20" height="20" viewBox="0 0 20 20" fill="none" xmlns="http://www.w3.org/2000/svg">
<path d="M19 9.9718C18.9995 9.84236 18.9966 9.71361 18.9908 9.58548V2.2805L16.9771 4.30003C15.3291 2.27685 12.8219 0.984619 10.0138 0.984619C7.09135 0.984619 4.49508 2.38361 2.85388 4.55018L6.1545 7.89524C6.47796 7.29528 6.93747 6.77997 7.49152 6.39077C8.06776 5.93978 8.88422 5.57104 10.0136 5.57104C10.1501 5.57104 10.2554 5.58703 10.3328 5.61716C11.7321 5.72793 12.9451 6.50245 13.6593 7.62662L11.323 9.96978C14.2823 9.95813 17.6253 9.9513 18.9997 9.97128" fill="#BFCAF1"/>
<path d="M9.96104 0.985352C9.83197 0.985781 9.7036 0.988769 9.57584 0.994571H2.29211L4.30576 3.0141C2.28847 4.66696 1 7.1814 1 9.99779C1 12.9287 2.39495 15.5326 4.55519 17.1785L7.89052 13.8683C7.2923 13.5439 6.77849 13.083 6.39042 12.5274C5.94077 11.9495 5.57308 11.1306 5.57308 9.99789C5.57308 9.86105 5.58902 9.75543 5.61906 9.67783C5.72951 8.27438 6.50178 7.05787 7.62268 6.34158L9.95902 8.68473C9.94741 5.71684 9.94057 2.36404 9.96052 0.985609" fill="#7F95E2"/>
<path d="M1 9.99731C1.00043 10.1268 1.00341 10.2555 1.00919 10.3836V17.6886L3.02284 15.6691C4.6709 17.6923 7.17803 18.9845 9.98622 18.9845C12.9086 18.9845 15.5049 17.5855 17.1461 15.4189L13.8455 12.0739C13.522 12.6738 13.0625 13.1891 12.5084 13.5783C11.9322 14.0293 11.1158 14.3981 9.98633 14.3981C9.84988 14.3981 9.74457 14.3821 9.66719 14.352C8.26783 14.2412 7.05485 13.4667 6.34065 12.3425L8.67699 9.99934C5.71772 10.011 2.37468 10.0178 1.00026 9.99783" fill="#5572D9"/>
</svg>
