<svg width="202" height="34" viewBox="0 0 202 34" fill="none" xmlns="http://www.w3.org/2000/svg">
<path d="M2.10458 22.4156C2.27309 21.8378 2.50694 21.2806 2.80269 20.7578L1.96015 19.6949C1.68504 19.3475 1.71599 18.8522 2.02549 18.5392L3.47671 17.0878C3.78966 16.7748 4.28486 16.7473 4.63219 17.0224L5.68794 17.8583C6.23129 17.5452 6.80903 17.3011 7.41084 17.1291L7.56903 15.7705C7.62061 15.3302 7.99202 15 8.4322 15H10.4852C10.9254 15 11.2968 15.3302 11.3484 15.7705L11.4997 17.0809C12.1462 17.2495 12.7652 17.5005 13.3464 17.8273L14.3678 17.019C14.7151 16.7438 15.2103 16.7748 15.5233 17.0844L16.9745 18.5358C17.2874 18.8488 17.3149 19.3441 17.0398 19.6915L16.2454 20.6993C16.5756 21.2703 16.8335 21.8791 17.0054 22.5154L18.2297 22.6564C18.6699 22.708 19 23.0795 19 23.5197V25.5731C19 26.0134 18.6699 26.3849 18.2297 26.4365L17.0226 26.5775C16.8575 27.2069 16.6099 27.8088 16.2936 28.3729L17.0364 29.3119C17.3115 29.6593 17.2806 30.1546 16.9711 30.4676L15.5233 31.9156C15.2103 32.2286 14.7151 32.2562 14.3678 31.981L13.4565 31.2587C12.865 31.6061 12.2322 31.8709 11.5685 32.0498L11.431 33.2295C11.3794 33.6698 11.008 34 10.5678 34H8.51477C8.07458 34 7.70318 33.6698 7.6516 33.2295L7.51404 32.0498C6.83313 31.8675 6.18318 31.5923 5.57793 31.2312L4.63223 31.981C4.28489 32.2562 3.78969 32.2252 3.47675 31.9156L2.02552 30.4642C1.71258 30.1512 1.68507 29.6559 1.96018 29.3085L2.75114 28.3076C2.43476 27.7366 2.19403 27.1278 2.03584 26.4949L0.770318 26.3505C0.330136 26.2989 0 25.9274 0 25.4871V23.4337C0 22.9935 0.330136 22.622 0.770318 22.5704L2.10458 22.4156ZM9.54297 27.9705C11.4137 27.9705 12.9372 26.4467 12.9372 24.5756C12.9372 22.7045 11.4137 21.1808 9.54297 21.1808C7.67223 21.1808 6.14875 22.7045 6.14875 24.5756C6.14875 26.4467 7.6722 27.9705 9.54297 27.9705Z" fill="#7D6EFF"/>
<path d="M20.6615 12.8544C20.7945 12.3982 20.9792 11.9583 21.2126 11.5456L20.5475 10.7065C20.3303 10.4323 20.3547 10.0412 20.5991 9.79414L21.7448 8.64824C21.9918 8.40113 22.3828 8.37944 22.657 8.59667L23.4905 9.25652C23.9194 9.00939 24.3755 8.81662 24.8507 8.68085L24.9755 7.60826C25.0163 7.26068 25.3095 7 25.657 7H27.2778C27.6253 7 27.9185 7.26071 27.9593 7.60826L28.0787 8.64283C28.5891 8.77589 29.0778 8.97411 29.5366 9.23208L30.343 8.59395C30.6172 8.37672 31.0081 8.40116 31.2552 8.64555L32.4009 9.79146C32.648 10.0386 32.6697 10.4296 32.4525 10.7038L31.8253 11.4995C32.086 11.9502 32.2896 12.4308 32.4253 12.9332L33.3919 13.0445C33.7394 13.0853 34 13.3785 34 13.7261V15.3472C34 15.6948 33.7394 15.9881 33.3919 16.0288L32.4389 16.1401C32.3086 16.637 32.1131 17.1122 31.8634 17.5576L32.4498 18.2989C32.667 18.5731 32.6426 18.9642 32.3982 19.2113L31.2552 20.3545C31.0082 20.6016 30.6172 20.6233 30.343 20.406L29.6235 19.8358C29.1566 20.1101 28.657 20.3192 28.133 20.4604L28.0245 21.3917C27.9837 21.7393 27.6905 22 27.343 22H25.7222C25.3747 22 25.0815 21.7393 25.0407 21.3917L24.9321 20.4604C24.3946 20.3164 23.8815 20.0992 23.4036 19.8141L22.657 20.406C22.3828 20.6233 21.9919 20.5988 21.7448 20.3545L20.5991 19.2085C20.352 18.9614 20.3303 18.5704 20.5475 18.2962L21.1719 17.506C20.9222 17.0552 20.7321 16.5746 20.6072 16.0749L19.6081 15.9609C19.2606 15.9202 19 15.6269 19 15.2793V13.6582C19 13.3106 19.2606 13.0174 19.6081 12.9766L20.6615 12.8544ZM26.5339 17.2398C28.0108 17.2398 29.2136 16.0369 29.2136 14.5597C29.2136 13.0825 28.0108 11.8796 26.5339 11.8796C25.057 11.8796 23.8543 13.0825 23.8543 14.5597C23.8543 16.0369 25.057 17.2398 26.5339 17.2398Z" fill="#7D6EFF"/>
<path d="M7.43998 5.07384C7.55527 4.67847 7.71527 4.29722 7.91763 3.93951L7.34116 3.21232C7.15292 2.97463 7.1741 2.63575 7.38586 2.42159L8.3788 1.42847C8.59292 1.21431 8.93175 1.19551 9.16939 1.38378L9.89175 1.95565C10.2635 1.74147 10.6588 1.5744 11.0706 1.45673L11.1788 0.527155C11.2141 0.225924 11.4682 0 11.7694 0H13.1741C13.4753 0 13.7294 0.225947 13.7647 0.527155L13.8682 1.42379C14.3106 1.5391 14.7341 1.7109 15.1318 1.93447L15.8306 1.38143C16.0682 1.19316 16.4071 1.21434 16.6212 1.42614L17.6141 2.41926C17.8282 2.63342 17.8471 2.9723 17.6588 3.20999L17.1153 3.89953C17.3412 4.29021 17.5176 4.70673 17.6353 5.14211L18.4729 5.2386C18.7741 5.2739 19 5.52806 19 5.82929V7.23425C19 7.53548 18.7741 7.78965 18.4729 7.82495L17.6471 7.92143C17.5341 8.3521 17.3647 8.76394 17.1483 9.14989L17.6565 9.79236C17.8447 10.0301 17.8236 10.3689 17.6118 10.5831L16.6212 11.5739C16.4071 11.788 16.0683 11.8068 15.8306 11.6186L15.2071 11.1244C14.8024 11.3621 14.3694 11.5433 13.9153 11.6656L13.8212 12.4728C13.7859 12.7741 13.5318 13 13.2306 13H11.8259C11.5247 13 11.2706 12.7741 11.2353 12.4728L11.1412 11.6656C10.6753 11.5409 10.2306 11.3526 9.81648 11.1055L9.16942 11.6186C8.93177 11.8068 8.59295 11.7857 8.37883 11.5739L7.38588 10.5807C7.17177 10.3666 7.15294 10.0277 7.34118 9.79001L7.88236 9.10518C7.66589 8.71452 7.50118 8.29797 7.39294 7.86495L6.52706 7.76611C6.22588 7.73081 6 7.47665 6 7.17542V5.77046C6 5.46923 6.22588 5.21506 6.52706 5.17976L7.43998 5.07384ZM12.5294 8.87452C13.8094 8.87452 14.8518 7.83198 14.8518 6.55175C14.8518 5.27152 13.8094 4.22898 12.5294 4.22898C11.2494 4.22898 10.207 5.27152 10.207 6.55175C10.207 7.83198 11.2494 8.87452 12.5294 8.87452Z" fill="#7D6EFF"/>
<path d="M197.268 20.8753C194.085 20.8753 192.751 19.4587 192.751 16.1351C192.751 13.538 194.3 11.6492 197.462 11.6492C197.978 11.6492 199.354 11.7037 199.354 11.7037V7.16331C199.806 7.12699 200.258 7.10883 200.645 7.10883C201.419 7.10883 202 7.16331 202 7.16331V20.8026C202 20.8026 199.44 20.8753 197.268 20.8753ZM197.483 18.9683H199.354V13.647H197.677C196.15 13.647 195.461 14.7548 195.461 16.1351C195.461 18.0058 195.978 18.9683 197.483 18.9683Z" fill="#7D6EFF"/>
<path d="M191.053 11.7046V20.794C191.053 20.794 189.569 20.9125 186.816 20.9125C184.063 20.9125 182.578 20.513 182.578 18.2064V11.7046C183.03 11.6683 183.482 11.6501 183.869 11.6501C184.643 11.6501 185.224 11.7046 185.224 11.7046V17.8614C185.224 18.6786 185.805 18.9511 186.816 18.9511C187.827 18.9511 188.407 18.9511 188.407 18.9511V11.7046C188.859 11.6683 189.289 11.6501 189.676 11.6501C190.451 11.6501 191.053 11.7046 191.053 11.7046Z" fill="#7D6EFF"/>
<path d="M171.347 16.0631C171.347 13.2662 172.315 11.6317 175.971 11.6317C179.628 11.6317 180.617 13.2662 180.617 16.0631C180.617 19.2051 179.198 20.9122 175.971 20.9122C172.745 20.9122 171.347 19.2051 171.347 16.0631ZM173.95 16.1176C173.95 17.8248 174.466 18.969 175.971 18.969C177.477 18.969 178.015 17.9156 178.015 16.1902C178.015 14.5012 177.477 13.5931 175.971 13.5931C174.466 13.5931 173.95 14.4104 173.95 16.1176Z" fill="#7D6EFF"/>
<path d="M166.761 20.8035V7.63632L169.407 7.16412V20.8035C168.977 20.8398 168.504 20.8579 168.117 20.8579C167.342 20.8579 166.761 20.8035 166.761 20.8035Z" fill="#7D6EFF"/>
<path d="M145.133 11.6501C146.682 11.6501 147.908 11.7046 147.908 11.7046C147.908 11.7046 147.972 12.1405 147.972 12.7216C147.972 13.0122 147.951 13.3391 147.908 13.666H145.026V20.8035C145.026 20.8035 144.423 20.858 143.649 20.858C143.262 20.858 142.81 20.8399 142.38 20.8035V11.7772C142.38 11.7772 143.456 11.6501 145.133 11.6501Z" fill="#7D6EFF"/>
<path d="M140.334 17.0802H133.753C133.753 18.4604 134.785 18.9871 136.269 18.9871C138.076 18.9871 139.28 18.4968 139.28 18.4968C139.818 19.423 139.947 20.3856 139.947 20.3856C139.947 20.3856 138.614 20.9304 136.269 20.9304C132.591 20.9304 131.107 19.3685 131.107 16.2266C131.107 13.1573 132.828 11.6317 135.882 11.6317C138.743 11.6317 140.42 13.3389 140.42 16.0086C140.42 16.6624 140.334 17.0802 140.334 17.0802ZM135.882 13.5568C134.42 13.5568 133.817 14.3014 133.796 15.3548H137.646V15.0824C137.646 14.3741 137.173 13.5568 135.882 13.5568Z" fill="#7D6EFF"/>
<path d="M125.284 20.8026V9.76038L127.908 9.28818V11.7037H130.661C130.704 12.0124 130.725 12.3393 130.725 12.6299C130.725 13.2111 130.661 13.6651 130.661 13.6651H127.908V20.8026C127.908 20.8026 127.327 20.8571 126.553 20.8571C126.166 20.8571 125.735 20.8389 125.284 20.8026Z" fill="#7D6EFF"/>
<path d="M119.111 11.6317C121.52 11.6317 122.746 12.5034 122.746 12.5034C122.746 12.5034 122.337 13.3934 121.348 13.9927C121.348 13.9927 120.445 13.4842 119.111 13.4842C118.165 13.4842 117.756 13.8474 117.756 14.3922C117.756 15.2822 119.025 15.264 120.401 15.4274C121.778 15.5909 123.155 16.3355 123.155 17.9882C123.155 20.0042 121.735 20.9122 118.681 20.9122C116.035 20.9122 114.981 19.9678 114.981 19.9678C114.981 19.9678 115.39 19.0961 116.379 18.5331C116.379 18.5331 117.369 19.0598 118.681 19.0598C119.95 19.0598 120.595 18.7147 120.595 18.0609C120.595 17.062 119.219 17.0983 117.799 16.9712C116.465 16.8441 115.175 16.1176 115.175 14.4649C115.175 12.4671 116.508 11.6317 119.111 11.6317Z" fill="#7D6EFF"/>
<path d="M108.656 13.666H107.323V20.8035C107.323 20.8035 106.742 20.858 105.968 20.858C105.581 20.858 105.129 20.8399 104.677 20.8035V11.7772C104.677 11.7772 106.505 11.6501 108.656 11.6501C112.076 11.6501 113.152 12.6672 113.152 15.5004V20.8035C113.152 20.8035 112.571 20.858 111.797 20.858C111.409 20.858 110.958 20.8399 110.506 20.8035V15.3369C110.506 14.0293 110.054 13.666 108.656 13.666Z" fill="#7D6EFF"/>
<path d="M93.4465 16.0631C93.4465 13.2662 94.4144 11.6317 98.0709 11.6317C101.727 11.6317 102.717 13.2662 102.717 16.0631C102.717 19.2051 101.297 20.9122 98.0709 20.9122C94.8446 20.9122 93.4465 19.2051 93.4465 16.0631ZM96.049 16.1176C96.049 17.8248 96.5652 18.969 98.0709 18.969C99.5765 18.969 100.114 17.9156 100.114 16.1902C100.114 14.5012 99.5765 13.5931 98.0709 13.5931C96.5652 13.5931 96.049 14.4104 96.049 16.1176Z" fill="#7D6EFF"/>
<path d="M83.8845 12.6844H83.9705C83.9705 12.6844 84.035 12.3757 85.9278 9.46983L87.4334 7.16331C87.9711 7.12699 88.7454 7.10883 89.2616 7.10883C90.294 7.10883 91.1759 7.16331 91.1759 7.16331V20.8026C90.7027 20.839 90.251 20.8571 89.8423 20.8571C89.025 20.8571 88.4013 20.8026 88.4013 20.8026L88.4443 9.97835H88.3583C88.3583 9.97835 88.1002 10.7956 86.2719 13.4472L84.0565 16.6618H83.7984L81.6261 13.5017C79.8408 10.9046 79.4967 9.97835 79.4967 9.97835H79.4107L79.4537 20.8026C79.4537 20.8026 78.8299 20.8571 78.0126 20.8571C77.6039 20.8571 77.1523 20.839 76.6791 20.8026V7.16331C77.2383 7.12699 77.9266 7.10883 78.4428 7.10883C79.4752 7.10883 80.4216 7.16331 80.4216 7.16331L82.1208 9.74225C83.7984 12.303 83.8845 12.6844 83.8845 12.6844Z" fill="#7D6EFF"/>
<path d="M65.4411 23.9455V11.7772C65.4411 11.7772 67.4844 11.6501 69.9579 11.6501C73.1412 11.6501 74.7113 12.7943 74.7113 16.136C74.7113 18.9147 73.1412 20.8217 69.5492 20.8217C69.0545 20.8217 68.4953 20.8035 68.0651 20.7854V23.9455C67.6565 23.9818 67.2263 24 66.8391 24C66.0648 24 65.4411 23.9455 65.4411 23.9455ZM68.0651 13.666V18.9692H69.5492C71.485 18.9692 72.0012 17.6798 72.0012 16.136C72.0012 14.3017 71.485 13.666 69.9579 13.666H68.0651Z" fill="#7D6EFF"/>
<path d="M58.1421 20.8759C55.5611 20.8759 54.5717 19.8952 54.5717 18.0972C54.5717 16.3174 55.5826 15.3185 58.3357 15.3185H60.3145V14.8463C60.3145 13.8111 59.5186 13.5931 58.4647 13.5931C57.0451 13.5931 55.6256 13.9564 55.6256 13.9564C55.6256 13.9564 55.3029 12.9393 55.432 11.9949C55.432 11.9949 56.5074 11.6317 58.4647 11.6317C61.4544 11.6317 62.96 12.4126 62.96 14.7373V20.8033C62.96 20.8033 60.508 20.8759 58.1421 20.8759ZM58.3572 19.1506C59.2175 19.1506 60.3145 19.0961 60.3145 19.0961V16.9893L58.5507 16.9712C57.2817 16.953 57.1527 17.5342 57.1527 18.0972C57.1527 18.6784 57.3463 19.1506 58.3572 19.1506Z" fill="#7D6EFF"/>
<path d="M53.2321 19.8487C52.3392 20.5756 50.7563 20.9573 49.1328 20.9573C44.851 20.9573 42 18.7219 42 13.9423C42 9.16265 44.851 7 49.1328 7C50.7563 7 52.3392 7.38164 53.2321 8.10859C52.7856 9.16265 51.6898 9.79873 51.6898 9.79873C51.6898 9.79873 50.6548 9.12631 49.1328 9.12631C46.8803 9.12631 44.7193 10.3985 44.7193 13.9423C44.7193 17.4861 46.8803 18.831 49.1328 18.831C50.6345 18.831 51.6898 18.1586 51.6898 18.1586C51.6898 18.1586 52.7856 18.7946 53.2321 19.8487Z" fill="#7D6EFF"/>
<path d="M165.396 19.8487C164.503 20.5756 162.92 20.9573 161.297 20.9573C157.015 20.9573 154.164 18.7219 154.164 13.9423C154.164 9.16265 157.015 7 161.297 7C162.92 7 164.503 7.38164 165.396 8.10859C164.95 9.16265 163.854 9.79873 163.854 9.79873C163.854 9.79873 162.819 9.12631 161.297 9.12631C159.044 9.12631 156.883 10.3985 156.883 13.9423C156.883 17.4861 159.044 18.831 161.297 18.831C162.799 18.831 163.854 18.1586 163.854 18.1586C163.854 18.1586 164.95 18.7946 165.396 19.8487Z" fill="#7D6EFF"/>
</svg>
